<?xml version="1.0" encoding="iso-8859-1"?>
<!-- Generator: Adobe Illustrator 19.2.1, SVG Export Plug-In . SVG Version: 6.00 Build 0)  -->
<svg version="1.1" id="Layer_1" xmlns="http://www.w3.org/2000/svg" xmlns:xlink="http://www.w3.org/1999/xlink" x="0px" y="0px"
	 viewBox="0 0 170.1 113.4" style="enable-background:new 0 0 170.1 113.4;" xml:space="preserve">
<g>
	<g>
		<g>
			<path d="M36.4,98.8c-0.8,0-1.5-0.3-2-0.8c-0.6-0.5-0.8-1.2-0.8-2c0-0.8,0.2-1.4,0.7-2c0.5-0.5,1.1-0.8,1.9-0.8
				c0.6,0,1.2,0.1,1.8,0.3l-0.1,0.3c-0.6-0.2-1.2-0.3-1.7-0.3c-0.7,0-1.2,0.2-1.6,0.7c-0.4,0.5-0.6,1-0.6,1.7s0.2,1.3,0.7,1.7
				s1.1,0.7,1.7,0.7c0.6,0,1.1-0.1,1.5-0.3l0.1,0.3c-0.2,0.1-0.4,0.2-0.7,0.3S36.7,98.8,36.4,98.8z"/>
			<path d="M44.4,98c-0.5-0.5-0.7-1.2-0.7-2c0-0.8,0.2-1.4,0.7-2c0.5-0.5,1.1-0.8,1.9-0.8s1.4,0.3,1.9,0.8c0.5,0.5,0.8,1.2,0.8,2
				c0,0.8-0.2,1.4-0.8,2c-0.5,0.5-1.1,0.8-1.9,0.8S44.9,98.6,44.4,98z M44.7,94.3c-0.4,0.5-0.6,1-0.6,1.7c0,0.7,0.2,1.3,0.6,1.7
				c0.4,0.5,1,0.7,1.6,0.7c0.7,0,1.2-0.2,1.6-0.7c0.4-0.5,0.6-1,0.6-1.7c0-0.7-0.2-1.3-0.6-1.7c-0.4-0.5-1-0.7-1.6-0.7
				S45.1,93.9,44.7,94.3z"/>
			<path d="M55.3,94.2l0,0.6v3.9h-0.4v-5.4h0.2l3.5,4.1c0.2,0.3,0.4,0.5,0.6,0.7c0-0.2,0-0.5,0-0.8v-3.9h0.4v5.4h-0.2l-3.6-4.1
				c-0.2-0.3-0.4-0.5-0.5-0.6L55.3,94.2z"/>
			<path d="M69.2,93.8c-0.4-0.2-0.7-0.2-1.1-0.2c-0.7,0-1.1,0.3-1.1,0.8c0,0.2,0.1,0.5,0.2,0.7s0.4,0.4,0.6,0.5
				c0.2,0.2,0.5,0.3,0.7,0.5c0.2,0.2,0.4,0.4,0.6,0.6c0.2,0.2,0.2,0.5,0.2,0.8c0,0.5-0.2,0.8-0.5,1s-0.7,0.3-1.3,0.3s-1-0.1-1.4-0.4
				l0.2-0.3c0.4,0.2,0.8,0.4,1.2,0.4c0.4,0,0.8-0.1,1-0.3c0.2-0.2,0.3-0.4,0.3-0.7c0-0.2-0.1-0.4-0.2-0.6c-0.2-0.2-0.4-0.4-0.6-0.5
				c-0.2-0.2-0.5-0.3-0.7-0.5c-0.2-0.2-0.4-0.4-0.6-0.6s-0.2-0.5-0.2-0.8c0-0.4,0.1-0.6,0.4-0.8c0.3-0.2,0.6-0.3,1.1-0.3
				c0.4,0,0.9,0.1,1.2,0.3L69.2,93.8z"/>
			<path d="M75.4,98.7v-5.3c0.4,0,0.8-0.1,1.2-0.1c0.5,0,0.9,0.1,1.3,0.4c0.3,0.2,0.5,0.6,0.5,1.1c0,0.5-0.2,0.9-0.6,1.2
				c-0.4,0.3-0.9,0.5-1.5,0.5c0,0-0.1,0-0.1,0v-0.2c0,0,0,0,0.1,0c0.5,0,0.9-0.1,1.3-0.4c0.4-0.3,0.5-0.6,0.5-1
				c0-0.4-0.1-0.7-0.4-0.9s-0.6-0.3-1-0.3c-0.2,0-0.5,0-0.8,0v5H75.4z"/>
			<path d="M85,98.7v-5.4h0.4v5.4H85z"/>
			<path d="M91.2,98.7v-5.3c0.5,0,0.9-0.1,1.2-0.1c0.5,0,0.9,0.1,1.3,0.4s0.5,0.6,0.5,1.1c0,0.3-0.1,0.6-0.3,0.9
				c-0.2,0.3-0.4,0.5-0.6,0.7c0.2,0.3,0.4,0.6,0.7,0.9s0.4,0.6,0.5,0.7c0.3,0.3,0.6,0.5,1,0.6l0,0.2c-0.3,0-0.6-0.1-0.7-0.1
				c-0.2-0.1-0.4-0.2-0.5-0.4c-0.2-0.2-0.6-0.7-1.3-1.7c-0.5,0-0.9,0-1.3,0v2.2H91.2z M92.7,96.3c0.2,0,0.5-0.1,0.7-0.4
				s0.4-0.6,0.4-1c0-0.4-0.1-0.7-0.4-0.9c-0.3-0.2-0.6-0.3-1-0.3c-0.2,0-0.5,0-0.8,0v2.5C92,96.3,92.3,96.3,92.7,96.3z"/>
			<path d="M99.9,96.9l-0.8,1.9h-0.4l2.3-5.4h0.2l2.3,5.4h-0.4l-0.8-1.9H99.9z M101.1,93.9C101.1,93.9,101.1,94,101.1,93.9
				c-0.1,0.3-0.2,0.5-0.2,0.6l-0.8,2h2.1l-0.8-2C101.2,94.2,101.1,94,101.1,93.9z"/>
			<path d="M108.9,93.7h-1.8v-0.3h4v0.3h-1.8v5h-0.4V93.7z"/>
			<path d="M115.6,98c-0.5-0.5-0.7-1.2-0.7-2c0-0.8,0.2-1.4,0.7-2c0.5-0.5,1.1-0.8,1.9-0.8s1.4,0.3,1.9,0.8c0.5,0.5,0.8,1.2,0.8,2
				c0,0.8-0.2,1.4-0.8,2c-0.5,0.5-1.1,0.8-1.9,0.8S116.1,98.6,115.6,98z M115.9,94.3c-0.4,0.5-0.6,1-0.6,1.7c0,0.7,0.2,1.3,0.6,1.7
				c0.4,0.5,1,0.7,1.6,0.7c0.7,0,1.2-0.2,1.6-0.7c0.4-0.5,0.6-1,0.6-1.7c0-0.7-0.2-1.3-0.6-1.7c-0.4-0.5-1-0.7-1.6-0.7
				S116.3,93.9,115.9,94.3z"/>
			<path d="M125,98.7v-5.3c0.5,0,0.9-0.1,1.2-0.1c0.5,0,0.9,0.1,1.3,0.4s0.5,0.6,0.5,1.1c0,0.3-0.1,0.6-0.3,0.9
				c-0.2,0.3-0.4,0.5-0.6,0.7c0.2,0.3,0.4,0.6,0.7,0.9s0.4,0.6,0.5,0.7c0.3,0.3,0.6,0.5,1,0.6l0,0.2c-0.3,0-0.6-0.1-0.7-0.1
				c-0.2-0.1-0.4-0.2-0.5-0.4c-0.2-0.2-0.6-0.7-1.3-1.7c-0.5,0-0.9,0-1.3,0v2.2H125z M126.4,96.3c0.2,0,0.5-0.1,0.7-0.4
				s0.4-0.6,0.4-1c0-0.4-0.1-0.7-0.4-0.9c-0.3-0.2-0.6-0.3-1-0.3c-0.2,0-0.5,0-0.8,0v2.5C125.7,96.3,126.1,96.3,126.4,96.3z"/>
			<path d="M136.3,93.8c-0.4-0.2-0.7-0.2-1.1-0.2c-0.7,0-1.1,0.3-1.1,0.8c0,0.2,0.1,0.5,0.2,0.7s0.4,0.4,0.6,0.5
				c0.2,0.2,0.5,0.3,0.7,0.5c0.2,0.2,0.4,0.4,0.6,0.6c0.2,0.2,0.2,0.5,0.2,0.8c0,0.5-0.2,0.8-0.5,1s-0.7,0.3-1.3,0.3s-1-0.1-1.4-0.4
				l0.2-0.3c0.4,0.2,0.8,0.4,1.2,0.4c0.4,0,0.8-0.1,1-0.3c0.2-0.2,0.3-0.4,0.3-0.7c0-0.2-0.1-0.4-0.2-0.6c-0.2-0.2-0.4-0.4-0.6-0.5
				c-0.2-0.2-0.5-0.3-0.7-0.5c-0.2-0.2-0.4-0.4-0.6-0.6s-0.2-0.5-0.2-0.8c0-0.4,0.1-0.6,0.4-0.8c0.3-0.2,0.6-0.3,1.1-0.3
				c0.4,0,0.9,0.1,1.2,0.3L136.3,93.8z"/>
		</g>
		<path d="M73,18.1L73,18.1c8.2,4.2,18.2,17.9,18.2,31.9c0,18.4-12.9,32.3-31.3,32.3c-18.3,0-33.1-13.7-33.3-31.9
			c0.8-15.9,13.8-29.7,29.1-29.6c1.2,0,4.8,0,7.3,0.9c0.2,1,1,2,2,2.6c1.2,0.8,2.8,1.6,3.4,2c0.6,0.4,4.1,3.5,4.4,3.7
			c0.3,0.2,1.2,0,1.6,0.1c0.4,0.1,1.2-0.5,1.5-1s-0.8-2.3-1.2-2.8c-0.4-0.6-3.4-3.1-3.6-5.5c-0.1-1-1.2-2.3-2.2-3.2
			c-2.3-2.1-7-2.8-10.7-2.9c-21.3-0.7-38.2,18.3-36.2,39.8C23.4,72.2,38.1,86.3,56,87.2c21,1.1,38.3-15.6,38.3-36.3
			C94.3,36.3,85.5,23.8,73,18.1z"/>
		<path d="M148.3,47.5c-1.7-17.8-16.4-31.9-34.2-32.8c-21-1.1-38.3,15.6-38.3,36.3c0,14.6,8.8,27.1,21.3,32.9l0-0.1
			C88.9,79.7,78.8,66,78.8,52c0-18.4,12.9-32.3,31.3-32.3c18.3,0,33.1,13.7,33.3,31.9c-0.8,15.9-13.8,29.7-29.1,29.6
			c-1.2,0-4.8,0-7.3-0.9c-0.2-1-1-2-2-2.6c-1.2-0.8-2.8-1.6-3.4-2c-0.6-0.4-4.1-3.5-4.4-3.7c-0.3-0.2-1.2,0-1.6-0.1
			c-0.4-0.1-1.2,0.5-1.5,1s0.8,2.3,1.2,2.8s3.4,3.1,3.6,5.5c0.1,1,1.2,2.3,2.2,3.2c2.3,2.1,7,2.8,10.7,2.9
			C133.4,88,150.3,69.1,148.3,47.5z"/>
	</g>
</g>
</svg>
